<svg xmlns="http://www.w3.org/2000/svg" xmlns:xlink="http://www.w3.org/1999/xlink" width="175" height="40" viewBox="0 0 175 40">
    <defs>
        <path id="767y41jtea" d="M0.038 0.009L18.634 0.009 18.634 10.126 0.038 10.126z"/>
        <path id="b0kmh0e03c" d="M0.043 0L9.449 0 9.449 14.083 0.043 14.083z"/>
        <path id="ouwym4i5te" d="M0.041 0.028L9.698 0.028 9.698 10.436 0.041 10.436z"/>
        <path id="xv9m2zjopg" d="M0.016 0.01L19.433 0.01 19.433 10.746 0.016 10.746z"/>
        <path id="cmkqpl2v1i" d="M0.016 0L19.443 0 19.443 14.92 0.016 14.92z"/>
        <path id="4dzdf1h44k" d="M0.016 0.028L9.029 0.028 9.029 10.436 0.016 10.436z"/>
        <path id="cx6rfrpbum" d="M0.038 0.01L18.634 0.01 18.634 19.184 0.038 19.184z"/>
        <path id="lk6r5hfm4o" d="M0.011 0.048L4.671 0.048 4.671 5.379 0.011 5.379z"/>
        <path id="p23fszu01q" d="M0.041 0.01L9.698 0.01 9.698 5.396 0.041 5.396z"/>
        <path id="6z7bntkibs" d="M0.016 0.01L19.433 0.01 19.433 19.184 0.016 19.184z"/>
        <path id="2emf1aq04u" d="M0.016 0.036L9.029 0.036 9.029 5.814 0.016 5.814z"/>
        <path id="zdootpt42w" d="M0.016 0.01L9.029 0.01 9.029 5.994 0.016 5.994z"/>
    </defs>
    <g fill="none" fill-rule="evenodd">
        <g>
            <g>
                <g>
                    <path fill="#33A751" d="M62.018 12.727c.248.233.372.54.372.918s-.124.68-.372.906c-.247.226-.567.339-.96.339h-3.43v11.446c0 .379-.139.695-.415.95-.277.255-.62.382-1.027.382-.407 0-.742-.127-1.004-.382-.263-.255-.394-.571-.394-.95V14.89H51.36c-.393 0-.714-.117-.961-.35-.248-.232-.371-.538-.371-.917 0-.364.127-.663.382-.896.254-.233.571-.35.95-.35h9.698c.394 0 .714.117.961.35z" transform="translate(-162 -24) translate(162 24)"/>
                    <path fill="#F9BB14" d="M93.29 14.234c0 .306-.109.605-.327.896-.233.306-.532.459-.896.459-.248 0-.495-.066-.743-.197-.713-.335-1.485-.502-2.315-.502-1.02 0-1.908.215-2.665.644-.758.43-1.34 1.034-1.747 1.813-.408.78-.612 1.671-.612 2.676 0 1.719.462 3.022 1.387 3.91.925.889 2.137 1.333 3.637 1.333.888 0 1.66-.168 2.315-.503.262-.116.495-.175.7-.175.378 0 .698.16.96.481.219.276.328.575.328.896 0 .232-.058.444-.175.633-.117.19-.284.335-.502.437-1.136.568-2.345.852-3.626.852-1.427 0-2.738-.302-3.932-.907-1.194-.604-2.148-1.496-2.861-2.676-.714-1.18-1.07-2.606-1.07-4.281 0-1.485.338-2.818 1.015-3.998.677-1.179 1.613-2.1 2.807-2.762 1.194-.663 2.541-.994 4.041-.994 1.296 0 2.497.284 3.604.852.452.233.677.604.677 1.113z" transform="translate(-162 -24) translate(162 24)"/>
                    <path fill="#EA4434" d="M110.393 12.749c.248.248.372.568.372.961v12.626c0 .379-.132.695-.393.95-.263.255-.598.382-1.005.382-.364 0-.678-.127-.94-.382-.262-.255-.393-.571-.393-.95v-5.09h-6.968v5.09c0 .379-.138.695-.415.95-.276.255-.597.382-.96.382-.394 0-.718-.127-.973-.382s-.382-.571-.382-.95V13.71c0-.378.13-.695.393-.95.262-.255.597-.382 1.005-.382.364 0 .677.127.94.382.261.255.392.572.392.95v5.024h6.968V13.71c0-.378.139-.695.415-.95.277-.255.597-.382.961-.382.408 0 .736.124.983.37z" transform="translate(-162 -24) translate(162 24)"/>
                    <g fill="#162F5B">
                        <path d="M12.065.399c.247.248.37.568.37.961v12.626c0 .379-.13.695-.392.95s-.598.382-1.005.382c-.364 0-.677-.127-.94-.382-.261-.255-.393-.571-.393-.95v-5.09H2.738v5.09c0 .379-.139.695-.416.95-.276.255-.597.382-.96.382-.394 0-.718-.127-.973-.382-.254-.255-.382-.571-.382-.95V1.36c0-.378.131-.695.394-.95C.662.155.997.028 1.405.028c.364 0 .678.127.94.382.261.255.393.572.393.95v5.024h6.967V1.36c0-.378.139-.695.415-.95.277-.255.598-.382.962-.382.407 0 .735.124.983.37zM30.216.377c.233.248.35.568.35.961v7.908c0 1.209-.255 2.279-.765 3.21-.51.933-1.223 1.661-2.14 2.185-.918.524-1.966.786-3.146.786s-2.231-.262-3.156-.786c-.925-.524-1.642-1.252-2.152-2.184-.51-.932-.764-2.002-.764-3.211V1.338c0-.378.13-.695.393-.95.262-.254.597-.382 1.005-.382.35 0 .655.128.917.382.262.255.393.572.393.95v7.908c0 .699.153 1.322.459 1.868.306.546.717.964 1.234 1.256.517.29 1.074.436 1.671.436.626 0 1.212-.145 1.759-.436.546-.292.982-.71 1.31-1.256.328-.546.492-1.169.492-1.868V1.338c0-.393.109-.713.327-.96.219-.248.517-.372.895-.372.38 0 .685.124.918.371zM47.636 8.24c.487.627.732 1.435.732 2.425 0 1.734-.496 2.942-1.486 3.626-.99.685-2.17 1.027-3.538 1.027h-5.44c-.378 0-.695-.127-.95-.382-.254-.255-.382-.571-.382-.95V1.36c0-.378.128-.695.382-.95.255-.255.572-.382.95-.382h5.505c2.767 0 4.15 1.296 4.15 3.888 0 .655-.156 1.234-.469 1.736-.314.503-.761.9-1.344 1.19.772.306 1.402.773 1.89 1.399zm-3.364-5.187c-.299-.298-.717-.448-1.256-.448h-3.604v3.408h3.67c.436 0 .819-.145 1.146-.437.328-.291.492-.684.492-1.18 0-.597-.15-1.044-.448-1.343zm.677 9.207c.386-.364.579-.896.579-1.595 0-.858-.226-1.42-.677-1.682-.452-.262-1.005-.393-1.66-.393h-3.78v4.216h3.933c.684 0 1.22-.182 1.605-.546z" transform="translate(-162 -24) translate(162 24) translate(125.61 12.35)"/>
                    </g>
                    <g>
                        <g transform="translate(-162 -24) translate(162 24) translate(0 9.433)">
                            <mask id="jbgenlqbbb" fill="#fff">
                                <use xlink:href="#767y41jtea"/>
                            </mask>
                            <path fill="#4589F9" d="M19.57 29.3C8.764 29.28.02 20.506.038 9.7.044 6.301.937 2.96 2.628.01l2.135 1.223C.068 9.425 2.904 19.873 11.098 24.568c8.193 4.695 18.64 1.859 23.335-6.335.49-.854.904-1.749 1.238-2.675l2.316.837C35.17 24.14 27.81 29.297 19.57 29.3z" mask="url(#jbgenlqbbb)"/>
                        </g>
                        <g transform="translate(-162 -24) translate(162 24) translate(9.185)">
                            <mask id="jf4r7938ud" fill="#fff">
                                <use xlink:href="#b0kmh0e03c"/>
                            </mask>
                            <path fill="#4589F9" d="M26.48 14.083C23.452 5.115 13.727.3 4.76 3.329c-1.201.406-2.353.943-3.436 1.603L.043 2.83C9.28-2.805 21.338.116 26.973 9.354c.757 1.241 1.373 2.563 1.838 3.94l-2.33.789z" mask="url(#jf4r7938ud)"/>
                        </g>
                        <g transform="translate(-162 -24) translate(162 24) translate(8.937 9.123)">
                            <mask id="h8n39c5nhf" fill="#fff">
                                <use xlink:href="#ouwym4i5te"/>
                            </mask>
                            <path fill="#4589F9" d="M1.542 15.822C.566 14.196.047 12.336.041 10.439.031 4.7 4.675.04 10.415.028c3.095-.006 6.032 1.368 8.01 3.749l-1.892 1.575C13.73 1.984 8.73 1.525 5.362 4.327c-1.815 1.509-2.863 3.748-2.86 6.108.005 1.452.402 2.874 1.15 4.119l-2.11 1.268z" mask="url(#h8n39c5nhf)"/>
                        </g>
                        <path fill="#4589F9" d="M6.422 12.212C3.316 12.212.797 9.695.797 6.59.797 3.483 3.314.964 6.42.964c3.106 0 5.625 2.517 5.625 5.623v.003c-.004 3.104-2.52 5.619-5.623 5.622zm0-8.785c-1.746 0-3.161 1.416-3.16 3.162 0 1.745 1.416 3.16 3.161 3.16s3.16-1.415 3.16-3.16c-.002-1.745-1.416-3.159-3.161-3.16v-.002z" transform="translate(-162 -24) translate(162 24)"/>
                    </g>
                    <g>
                        <g transform="translate(-162 -24) translate(162 24) translate(18.618) translate(0 8.813)">
                            <mask id="ke9f41p8kh" fill="#fff">
                                <use xlink:href="#xv9m2zjopg"/>
                            </mask>
                            <path fill="#F9BB14" d="M.951 29.92c-10.805-.018-19.55-8.793-19.531-19.598.006-3.401.898-6.742 2.589-9.693.338-.59 1.09-.794 1.68-.456.59.337.794 1.09.456 1.68-4.695 8.193-1.859 18.64 6.334 23.335 8.194 4.695 18.641 1.859 23.336-6.334.49-.855.904-1.75 1.238-2.676.246-.634.96-.948 1.594-.701.613.238.93.915.722 1.538C16.553 24.761 9.193 29.918.95 29.92z" mask="url(#ke9f41p8kh)"/>
                        </g>
                        <g transform="translate(-162 -24) translate(162 24) translate(18.618)">
                            <mask id="7j54j8m71j" fill="#fff">
                                <use xlink:href="#cmkqpl2v1i"/>
                            </mask>
                            <path fill="#F9BB14" d="M18.211 14.92c-.528 0-.997-.338-1.165-.838C14.018 5.115 4.293.3-4.675 3.33c-1.2.406-2.353.943-3.435 1.603-.576.36-1.335.187-1.696-.389-.361-.576-.187-1.335.388-1.696l.028-.017C-.152-2.805 11.905.116 17.54 9.355c.757 1.24 1.373 2.562 1.838 3.94.218.642-.126 1.339-.768 1.557l-.003.001c-.128.043-.261.066-.396.067z" mask="url(#7j54j8m71j)"/>
                        </g>
                        <g transform="translate(-162 -24) translate(162 24) translate(18.618) translate(0 9.123)">
                            <mask id="167lj0sd0l" fill="#fff">
                                <use xlink:href="#4dzdf1h44k"/>
                            </mask>
                            <path fill="#F9BB14" d="M-7.084 16.42c-.433.001-.834-.226-1.056-.598-.977-1.626-1.495-3.486-1.5-5.383C-9.65 4.7-5.006.04.734.028c3.095-.006 6.032 1.368 8.01 3.749.436.523.364 1.3-.158 1.734-.523.435-1.3.364-1.734-.159C4.05 1.984-.952 1.525-4.32 4.327c-1.815 1.509-2.863 3.748-2.86 6.108.005 1.452.402 2.874 1.15 4.119.35.584.16 1.34-.424 1.691-.19.115-.41.175-.633.175h.002z" mask="url(#167lj0sd0l)"/>
                        </g>
                    </g>
                    <g>
                        <g transform="translate(-162 -24) translate(162 24) translate(0 19.55)">
                            <mask id="4m45wmcy0n" fill="#fff">
                                <use xlink:href="#cx6rfrpbum"/>
                            </mask>
                            <path fill="#33A751" d="M19.57 19.184C8.764 19.165.02 10.39.038-.414c.006-3.401.899-6.742 2.59-9.693l2.135 1.223C.068-.69 2.904 9.757 11.098 14.452c8.193 4.695 18.64 1.859 23.335-6.335.49-.854.904-1.749 1.238-2.675l2.316.837C35.17 14.025 27.81 19.181 19.57 19.184z" mask="url(#4m45wmcy0n)"/>
                        </g>
                        <g transform="translate(-162 -24) translate(162 24) translate(0 19.55) translate(13.964 5.027)">
                            <mask id="rmgu51j6pp" fill="#fff">
                                <use xlink:href="#lk6r5hfm4o"/>
                            </mask>
                            <path fill="#33A751" d="M5.395 5.379c-1.901-.001-3.766-.53-5.384-1.53l1.291-2.095c1.231.759 2.649 1.16 4.095 1.16h.016c2.356.004 4.591-1.047 6.09-2.866l1.898 1.568c-1.965 2.386-4.895 3.767-7.987 3.763h-.019z" mask="url(#rmgu51j6pp)"/>
                        </g>
                        <g transform="translate(-162 -24) translate(162 24) translate(0 19.55) translate(8.937)">
                            <mask id="ulgmdiab6r" fill="#fff">
                                <use xlink:href="#p23fszu01q"/>
                            </mask>
                            <path fill="#33A751" d="M1.542 5.396C.566 3.77.047 1.91.041.013.031-5.727 4.675-10.388 10.415-10.4c3.095-.005 6.032 1.37 8.01 3.75l-1.892 1.575C13.73-8.442 8.73-8.901 5.362-6.1 3.547-4.59 2.499-2.35 2.502.01c.005 1.45.402 2.873 1.15 4.117l-2.11 1.269z" mask="url(#ulgmdiab6r)"/>
                        </g>
                        <path fill="#33A751" d="M12.897 10.803c-2.385.001-4.318-1.932-4.319-4.317 0-2.384 1.932-4.318 4.317-4.319 2.385 0 4.318 1.932 4.32 4.317-.004 2.384-1.934 4.316-4.318 4.32zm0-6.172c-1.024.001-1.853.833-1.852 1.857 0 1.024.832 1.853 1.857 1.852 1.023-.001 1.852-.832 1.852-1.855-.002-1.025-.832-1.854-1.857-1.854z" transform="translate(-162 -24) translate(162 24) translate(0 19.55)"/>
                    </g>
                    <g>
                        <g transform="translate(-162 -24) translate(162 24) translate(18.618 19.55)">
                            <mask id="7ioyuq3ont" fill="#fff">
                                <use xlink:href="#6z7bntkibs"/>
                            </mask>
                            <path fill="#EA4434" d="M.951 19.184C-9.854 19.165-18.599 10.39-18.58-.414c.006-3.401.898-6.742 2.589-9.693.338-.59 1.09-.794 1.68-.457.59.338.794 1.09.456 1.68-4.695 8.193-1.859 18.64 6.334 23.336C.673 19.146 11.12 16.31 15.815 8.117c.49-.854.904-1.75 1.238-2.675.246-.634.96-.948 1.594-.702.613.239.93.916.722 1.539C16.553 14.025 9.193 19.181.95 19.184z" mask="url(#7ioyuq3ont)"/>
                        </g>
                        <g transform="translate(-162 -24) translate(162 24) translate(18.618 19.55) translate(0 4.592)">
                            <mask id="uz0dfpi3cv" fill="#fff">
                                <use xlink:href="#2emf1aq04u"/>
                            </mask>
                            <path fill="#EA4434" d="M.741 5.814c-1.902-.001-3.766-.53-5.384-1.53-.578-.358-.756-1.116-.398-1.694.357-.576 1.111-.755 1.689-.401 1.231.758 2.649 1.16 4.095 1.16h.015C3.115 3.353 5.35 2.301 6.85.483c.434-.524 1.21-.597 1.734-.164.523.433.597 1.21.163 1.733C6.781 4.438 3.851 5.818.76 5.814H.741z" mask="url(#uz0dfpi3cv)"/>
                        </g>
                        <g transform="translate(-162 -24) translate(162 24) translate(18.618 19.55)">
                            <mask id="l3091ovd0x" fill="#fff">
                                <use xlink:href="#zdootpt42w"/>
                            </mask>
                            <path fill="#EA4434" d="M-7.084 5.994c-.433.001-.834-.227-1.056-.598C-9.117 3.77-9.635 1.91-9.64.013-9.65-5.727-5.006-10.388.734-10.4c3.095-.005 6.032 1.37 8.01 3.75.436.523.364 1.299-.158 1.734-.523.435-1.3.364-1.734-.159C4.05-8.442-.952-8.901-4.32-6.1-6.134-4.59-7.182-2.35-7.18.01c.005 1.45.402 2.873 1.15 4.117.35.584.16 1.341-.424 1.692-.19.115-.41.175-.633.175h.002z" mask="url(#l3091ovd0x)"/>
                        </g>
                    </g>
                    <path fill="#4589F9" d="M76.13 14.968h-7.57c-.703 0-1.274-.586-1.274-1.308 0-.722.57-1.307 1.274-1.307h7.57c.704 0 1.274.585 1.274 1.307s-.57 1.308-1.274 1.308zM76.13 21.318h-7.57c-.703 0-1.274-.586-1.274-1.308 0-.722.57-1.307 1.274-1.307h7.57c.704 0 1.274.585 1.274 1.307s-.57 1.308-1.274 1.308zM76.13 27.667h-7.57c-.703 0-1.274-.585-1.274-1.307s.57-1.307 1.274-1.307h7.57c.704 0 1.274.585 1.274 1.307s-.57 1.307-1.274 1.307z" transform="translate(-162 -24) translate(162 24)"/>
                </g>
            </g>
        </g>
    </g>
</svg>
